<svg xmlns:dc="http://purl.org/dc/elements/1.1/" xmlns:cc="http://creativecommons.org/ns#" xmlns:rdf="http://www.w3.org/1999/02/22-rdf-syntax-ns#" xmlns:svg="http://www.w3.org/2000/svg" xmlns="http://www.w3.org/2000/svg" height="248" width="580" xml:space="preserve" version="1.1" style=""><rect id="backgroundrect" width="100%" height="100%" x="0" y="0" fill="none" stroke="none"/><metadata id="metadata8"><rdf:RDF><cc:Work rdf:about=""><dc:format>image/svg+xml</dc:format><dc:type rdf:resource="http://purl.org/dc/dcmitype/StillImage"/></cc:Work></rdf:RDF></metadata><defs id="defs6"/><g class="currentLayer" style=""><title>Layer 1</title><g id="g10" class=""><g id="g12" stroke-width="0"><path id="path14" style="fill:#176fc1;fill-opacity:1;fill-rule:nonzero;stroke:none" d="m96.76953214689036,95.65363950939138 c0,0 18.535159536621002,0 18.535159536621002,0 c1.091146639388,0 2.0455732821940003,-0.3704399907390004 2.852866595345,-1.1119733055340002 c0.8085866464520002,-0.7428399814290007 1.4544266303060003,-2.008466616455 1.9361999515950008,-3.7975332383950002 c0.8938799776530018,-3.337226583236 0.6048133182130006,-6.169266512435 -0.8541733119790006,-8.501946454118 c-1.459639963509,-2.333333275 -3.6028665765950003,-3.502599912435 -6.433586505827001,-3.502599912435 c-3.1634132542480002,0 -6.229826510921,1.4095066314290001 -9.194013103483,4.22786656097 c-2.9596399260090003,2.8209599294760004 -5.239586535677,7.048826490446 -6.842453162272001,12.686186349511999 zm29.784505922054002,3.22786658597 c0,0 -30.652999233675,0 -30.652999233675,0 c-1.574866627295,6.451173172054 -1.574866627295,11.007813058138002 -0.003999999900000007,13.66146632513 c1.8189999545250006,2.9850265920409997 4.750653214567,4.477213221403 8.796866446745,4.477213221403 c5.964853184212,0 11.656906375244,-3.375653248942 17.087239572819,-10.130866413395001 c0,0 2.6256532676920012,1.2714799682130002 2.6256532676920012,1.2714799682130002 c-6.7649731642090005,8.653653116992 -14.356772974414001,12.976573008919 -22.765626097526003,12.976573008919 c-5.7278665234699995,0 -10.003253083252,-2.0644532817220003 -12.808586346452,-6.186853178662001 c-2.8118532630370003,-4.125653230192 -3.3574265827309997,-9.402346431608 -1.6341199591470001,-15.835279604118 c1.8541732869790004,-6.919279827018001 5.279946534668,-12.505866354020002 10.281253076302,-16.766279580843 c4.998039875049001,-4.262373226774 10.315106408789,-6.391279840218 15.959639601009002,-6.391279840218 c4.147773229639,0 7.4439998139000005,1.063799973405 9.891919752702,3.18879992028 c2.4459599388510003,2.1302132800780003 3.895839902604,5.182293203776001 4.361973224284,9.162759770931 c0.3099066589190006,2.795573263444 -0.06573333169000002,6.319013175358 -1.1386666382000001,10.57226640236 z" stroke-width="0"/><path id="path16" style="fill:#176fc1;fill-opacity:1;fill-rule:nonzero;stroke:none" d="m137.03775780685135,103.77734597296546 c0.4752666547850003,5.244786535547 1.663413291748,8.871746444873 3.5657599108560003,10.888666394449999 c1.902999952425,2.011719949707 4.6419332172850005,3.018226591211 8.227213127653,3.018226591211 c3.3092399172690006,0 6.041013182308,-0.7200533153320001 8.205733128190001,-2.172519945687 c2.1568932794110003,-1.4466132971680001 3.541013244808,-3.2845065845540002 4.136719896582,-5.5130265288409985 c0.3430933247560003,-1.276693301416 0.3163999920900004,-2.4016932732910004 -0.0801333313300001,-3.3632799159179996 c-0.39713332340500007,-0.9602799759930006 -1.115239972119,-1.6783866247069996 -2.1412799464680004,-2.1477866129720002 c-1.033853307487,-0.4739599881510003 -3.8476532371420005,-1.1692666374350003 -8.448573122119,-2.085279947868 c-4.393879890153,-0.9166666437500002 -7.365226482536001,-1.8684932866210002 -8.928373110124,-2.873706594824 c-1.566413294173,-1.001946641618 -2.630213267578,-2.376946607243 -3.1738399206540002,-4.1386665632 c-0.5566399860840007,-1.751946622868 -0.5566399860840007,-3.664066575065 0,-5.728519856787 c0.8320399791990006,-3.123039921924 2.641933267285,-5.957679851058 5.432946530843,-8.503253120752 c3.5846399103840003,-3.246093252181 7.821613137793,-4.867186544987001 12.704426349056002,-4.867186544987001 c3.72786657347,0 6.854826495296,1.1770799705730002 9.401039764974,3.5299465784180004 c0,0 3.8717465698730003,-3.197919920052 3.8717465698730003,-3.197919920052 c0,0 1.879559953011,0 1.879559953011,0 c0,0 -2.8938799276530007,15.248052952132001 -2.8938799276530007,15.248052952132001 c0,0 -3.1139332554850006,0 -3.1139332554850006,0 c-0.16145332929700026,-4.378253223877 -1.130213305078,-7.535159811621 -2.8958265942710004,-9.46093309681 c-1.7662799558430002,-1.9264399518389999 -4.326173225179,-2.890626594401 -7.674479808138001,-2.890626594401 c-2.8951865942870003,0 -5.354826532796,0.708333315625 -7.382813148763001,2.1301999467450004 c-2.0182399495439998,1.4244799643880004 -3.309253250602,3.1569065877440003 -3.854826570296,5.202479869938 c-0.4843733212240007,1.8053332882000002 -0.1230666635900001,3.3046932507160003 1.082039972949,4.4941465543130015 c1.1568933044110004,1.2219999694500001 3.830079904248,2.182279945443 8.010413133073001,2.87759992806 c4.8365865457520005,0.8437466455730009 7.935546468278001,1.552733294515 9.305986434017,2.124346613558 c2.2519599437010003,0.9192666436850002 3.8098932380860004,2.3313866083820005 4.66666655,4.242839893929 c0.8548133119630001,1.9062532856769998 0.9160133104330006,4.235026560791001 0.17969332884100017,6.987626491976 c-1.012373308024,3.787106571989 -3.3535199161620004,6.993493158496 -7.033853157487,9.61653309292 c-3.6653732416990006,2.628906600944 -7.781906472119,3.942066568115 -12.356119691097,3.942066568115 c-4.232426560856,0 -7.793626471826001,-1.3912799652180001 -10.669919733252,-4.168626562451 c0,0 -4.363933224235,3.8313865708820005 -4.363933224235,3.8313865708820005 c0,0 -2.4186266062010002,0 -2.4186266062010002,0 c0,0 3.643879908903,-17.022786241097002 3.643879908903,-17.022786241097002 c0,0 3.1165332554200003,0 3.1165332554200003,0 z" stroke-width="0"/><path id="path18" style="fill:#176fc1;fill-opacity:1;fill-rule:nonzero;stroke:none" d="m198.30143627525933,59.70898707467438 c0,0 3.10546658903,0 3.10546658903,0 c0,0 -4.6783865497070005,17.471346229883 -4.6783865497070005,17.471346229883 c0,0 13.820306321159,0 13.820306321159,0 c0,0 -1.100253305827,4.1171865637369995 -1.100253305827,4.1171865637369995 c0,0 -13.826172987679001,0 -13.826172987679001,0 c0,0 -7.363279815918,27.473305979834002 -7.363279815918,27.473305979834002 c-0.636719984082,2.378906607194 -0.5651066525390008,4.1953198951170005 0.2089866614420003,5.4609465301430005 c0.7753866472819996,1.2662666350100003 2.0247332827149997,1.8984399525390014 3.7512932395510012,1.8984399525390014 c2.049479948763,0 4.05013323208,-0.9576933093910006 6.013679849658,-2.8730532615070006 c1.959626617676001,-1.9121066188640001 3.6529865753420006,-5.076173206429 5.075519873112,-9.479813096338 c0,0 3.1080665889650003,0 3.1080665889650003,0 c-1.705079957373001,5.691399857715001 -4.137359896566,9.920573085318999 -7.277986484717001,12.671226349886 c-3.15039992124,2.751293264551 -6.6341198341470005,4.132159896696001 -10.472653071517001,4.132159896696001 c-3.5397199115070004,0 -6.044279848893001,-0.9667999758300007 -7.524093145231,-2.9049465940430004 c-1.4681066299640002,-1.9349066182940002 -1.78906662194,-4.472013221533 -0.9479199763020006,-7.6100264764159995 c0,0 7.708333140625,-28.768239280794003 7.708333140625,-28.768239280794003 c0,0 -7.486973146159001,0 -7.486973146159001,0 c0,0 0.8398399790040006,-3.1289065884440004 0.8398399790040006,-3.1289065884440004 c3.5722665773600006,-0.5787733188640006 6.5520798361980015,-1.9973866167320002 8.942706443099,-4.24999989375 c3.5507865778970005,-3.3828132487630005 6.251959843701001,-8.12173313029 8.103519797412,-14.209626311426002 z" stroke-width="0"/><path id="path20" style="fill:#0994dc;fill-opacity:1;fill-rule:nonzero;stroke:none" d="m499.06249542289936,111.03515912485341 c0,-61.32551846686201 -93.15625100442699,-111.03515722412101 -208.069008131608,-111.03515722412101 c-76.107424763981,0 -142.645183100537,21.815106121289 -178.923822193571,54.358718641032 c25.983719350407,-14.857412961898001 59.298171850879,-25.520172695329 96.274090926481,-29.272785934847 c89.09894443919299,-9.044919773877 165.582022527116,25.380866032145 170.807275729818,76.89583807760401 c0.9075599773110006,8.936199776595 -0.4439999889000006,17.791666221875 -3.6666665750000003,26.386719340332004 c0,0 121.036463640755,0 121.036463640755,0 c1.6653599583660008,-5.649746525423 2.541666603125,-11.436853047412 2.541666603125,-17.333332900000002 z" stroke-width="0"/><path id="path22" style="fill:#254aa5;fill-opacity:1;fill-rule:nonzero;stroke:none" d="m273.08658107229735,195.59830367744144 c-4.6132798846680005,1.251306635384 -9.331373100049,1.8789066196940007 -14.149079646273,1.8789066196940007 c-11.934893034961,0 -21.343746133073,-3.1484399212890004 -28.191412628548,-9.441413097298 c-9.163399770915001,-8.376293123926 -13.743479656413001,-20.075519498112 -13.743479656413001,-35.082025789616004 c0,-2.550773269564 0.16405332923200017,-5.057946540218 0.40819998979500033,-7.547519811312 c0,0 -124.27799689305,0 -124.27799689305,0 c25.635426025781,42.052732282015 97.024090907731,73.081371506299 182.830728762565,76.358718091032 c3.6217465761230008,-7.911453135547 7.214186486312,-18.467452871647 10.766279730843,-31.691399207715 c-4.480466554655,2.4361866057620003 -9.026693107666,4.276039893099 -13.643239658919002,5.524733195215001 z" stroke-width="0"/><path id="path24" style="fill:#254aa5;fill-opacity:1;fill-rule:nonzero;stroke:none" d="m436.4700436543774,159.22330458681643 c-1.3424399664389999,-2.1712266123860005 -3.5768132439130005,-3.253253252002 -6.713533165495,-3.253253252002 c-2.377613273893,0 -4.700519882487,0.636719984082 -6.964853159212,1.909506618929 c-2.2708266098960004,1.269533301595 -4.259106560189,3.0885332561200003 -5.983066517090001,5.438799864030001 c-2.5325599366860003,3.3828132487630005 -4.114586563802,6.257813176888001 -4.746093214681,8.610679784733 c0,0 -6.151039846224,22.980466092154998 -6.151039846224,22.980466092154998 c-0.4205733228190004,1.557293294401 -0.31119999222000033,2.7096265989260004 0.3398399915040007,3.4466132471680004 c0.6380266507160006,0.7434933147460002 1.8372399540690005,1.1067733056640001 3.5846399103840003,1.1067733056640001 c0,0 3.6744799081380006,0 3.6744799081380006,0 c0,0 -0.3867199903320006,1.4413999639650008 -0.3867199903320006,1.4413999639650008 c5.923173185254,-2.2994799425130004 11.606773043164,-4.765626547526 17.045572907194,-7.376293148926 c0,0 6.72786649847,-25.131519371712 6.72786649847,-25.131519371712 c1.062493306771,-3.953119901172 0.9192666436850002,-7.010413158073001 -0.42709332265600014,-9.173173104004 z" stroke-width="0"/><path id="path26" style="fill:#254aa5;fill-opacity:1;fill-rule:nonzero;stroke:none" d="m335.4947928454253,198.3235702759764 c0.6783866497069996,0.7682266474610007 1.6783866247069996,1.1393199715170002 3.02213325778,1.1393199715170002 c0,0 6.096346514258,0 6.096346514258,0 c0,0 -1.1432266380860001,4.268226559961 -1.1432266380860001,4.268226559961 c0,0 -30.572905902344004,0 -30.572905902344004,0 c0,0 1.136706638249,-4.268226559961 1.136706638249,-4.268226559961 c0,0 5.651053192057001,0 5.651053192057001,0 c1.666666625,0 3.003906591569,-0.40494665654300005 4.00519989987,-1.2239599694010002 c0.9999999750000006,-0.813799979655001 1.7044266240560002,-2.013026616341 2.1289066134440002,-3.5690132441080005 c0,0 9.026039774349,-33.715492490446 9.026039774349,-33.715492490446 c0.5781333188800001,-2.12759994681 0.3958399901040007,-3.7415332397950003 -0.5377599865560007,-4.822919879427 c-0.940106643164,-1.087239972819 -2.611973268034,-1.6347599591310007 -5.024733207715,-1.6347599591310007 c0,0 -4.417973222884,0 -4.417973222884,0 c0,0 1.1432266380860001,-4.261719893457 1.1432266380860001,-4.261719893457 c0,0 21.610679459733003,-0.5885466519530006 21.610679459733003,-0.5885466519530006 c0,0 -12.326826358496001,45.998705516699 -12.326826358496001,45.998705516699 c-0.3320266583660005,1.2591066351890001 -0.2656266600260003,2.151039946224 0.20313332825500002,2.6783865997069998 zM473.33462939942933,155.99478466752953 c-0.9440133097329994,-1.0748666397950002 -3.263026585091,-1.6725199581869998 -6.937493159896,-1.7916666218750001 c0,0 1.0195199745120003,-3.8177065712240004 1.0195199745120003,-3.8177065712240004 c0,0 17.505212895703,-1.029946640918 17.505212895703,-1.029946640918 c-0.04426666556000004,0.7265599818359996 -0.14322666308600004,1.4244799643880004 -0.20702666149100019,2.1425732797690005 c1.472653296517,-2.0058532831869997 2.8749999281250007,-4.033853232487 4.132813230013,-6.091786514372 c0,0 -253.26496700170904,0 -253.26496700170904,0 c-0.18881332861300001,2.1946532784670003 -0.32097332530900063,4.3984398900390005 -0.32097332530900063,6.626946500993 c0,12.788413013623 3.0162799245930003,22.182292778776002 9.045573107194,28.199225961686 c6.034506515804,6.019519849512 12.793626346826,9.027333107650001 20.276039493099,9.027333107650001 c4.453133222005,0 8.714853115462,-0.6015599849609995 12.785159680371,-1.8007732883140002 c4.080733231315,-1.2005199699870002 7.979173133854,-2.9622399259440004 11.684893041211,-5.298186534212 c3.104173255729,-10.562493069271001 4.649746550423,-17.600906226644 4.649746550423,-21.09959947251 c0,-1.7955732884439999 -0.6302133175780008,-3.2115865863770003 -1.8737066198240004,-4.2389332273600004 c-1.244786635547,-1.0227866410970003 -3.454426580306,-1.541666628125 -6.621093167806,-1.541666628125 c-1.081373306299,0 -3.673173241504,0.1666666625000002 -7.777986472217001,0.5078133206380001 c0,0 0.9107999772300012,-4.871746544873 0.9107999772300012,-4.871746544873 c2.961586592627,-0.4069066564940003 5.964853184212,-0.6106799847330007 8.998706441699001,-0.6106799847330007 c2.424479939388,0 5.434893197461,0.07226666486000013 9.006506441504,0.20377332823900005 c2.769533264095,0.07093333156000002 4.8307332125650015,0.11199999720000003 6.178386512207001,0.11199999720000003 c2.423173272754,0 6.140626513151001,-0.18489332871100017 11.131506388379,-0.550786652897 c2.6263066010090004,-0.18423999539400027 4.8841198778970005,-0.30729332565100004 6.778653163867,-0.3723866573570008 c0,0 -1.218759969531,5.175119870622001 -1.218759969531,5.175119870622001 c-3.320306583659,-0.06573333169000002 -5.6731731915040005,0.6595066501790007 -7.065106490039,2.1712266123860005 c-1.3932266318360003,1.5052132957030002 -2.8567599285810017,5.453119863672 -4.372386557357,11.826826370996 c-5.5364665282550005,23.001292758301 -10.998706391698999,39.683585674577 -16.414066256315,50.031252082552 c-0.5598933193360006,1.089839972754 -1.135413304948,2.12759994681 -1.723959956901,3.1432265880860006 c0.4518266553710006,0.005333333200000006 0.8971333109050006,0.01959999951000002 1.352866632845,0.01959999951000002 c42.308598942285,0 81.64193129228501,-6.7591198310220015 114.48437047122401,-18.334639541634 c0,0 -20.494786154297003,0 -20.494786154297003,0 c0,0 1.1432266380860001,-4.268226559961 1.1432266380860001,-4.268226559961 c0,0 3.075519923112,0 3.075519923112,0 c1.9348932849609999,0 3.4765599130860005,-0.3710933240560001 4.632813217513,-1.134119971647 c1.147133304655,-0.7617199809570001 1.8749999531250012,-1.7252532902020001 2.2005199449870005,-2.907546593978 c0,0 6.5898398352540015,-24.592452718522 6.5898398352540015,-24.592452718522 c1.3893332986000002,-5.202466536605001 1.4947999626300001,-8.973959775651 0.2942799926430003,-11.326826383496 c-1.192706636849,-2.3541599411460004 -3.335946583268,-3.5318932450360006 -6.427093172656,-3.5318932450360006 c-3.9895732335939997,0 -7.424479814388,1.3619732992840001 -10.295573075944,4.098306564209 c-4.085933231185,3.8710932365560007 -6.825519829362,8.390626456901002 -8.203119794922,13.549479661263002 c0,0 -5.703119857422,21.291666134375 -5.703119857422,21.291666134375 c-0.4387999890300004,1.6341066258140002 -0.3763066572590007,2.756506597754 0.18879999528000027,3.361973249284 c0.813799979655001,0.8033866465820001 2.321613275293,1.1914133035480001 4.503906554069,1.1914133035480001 c0,0 2.751293264551,0 2.751293264551,0 c0,0 -1.1380133048830001,4.268226559961 -1.1380133048830001,4.268226559961 c0,0 -27.234372652474,0 -27.234372652474,0 c0,0 1.1432266380860001,-4.268226559961 1.1432266380860001,-4.268226559961 c0,0 4.06639989834,0 4.06639989834,0 c1.529959961751,0 2.8007865966470002,-0.3710933240560001 3.830733237565001,-1.134119971647 c1.0247466410480002,-0.756506647754 1.6927066243490012,-1.7252532902020001 2.01693328291,-2.897133260905 c0,0 9.347653099642,-34.935545793278 9.347653099642,-34.935545793278 c0.5234399869140002,-1.923173285254 0.4205733228190004,-3.3730532490070004 -0.3281199917970008,-4.323573225244 c-0.7395866481769996,-0.9466133096680006 -2.562506602604,-1.5598932943360002 -5.476573196419,-1.820306621159 c0,0 1.063799973405,-3.96679990083 1.063799973405,-3.96679990083 c0,0 15.78906627194,-1.029946640918 15.78906627194,-1.029946640918 c-0.22005332783200032,3.9850265670410003 -0.6848933162110014,7.792319805192 -1.37759996556,11.403653048241999 c4.003906566569,-4.18359989541 7.673173141504,-7.130866488395001 11.009106391439001,-8.834639779134001 c3.338546583203,-1.7128932905110008 6.7382931648760005,-2.5690132691080003 10.186199745345002,-2.5690132691080003 c3.673186574837,0 6.445319838867,0.9707066423990006 8.317706458724,2.901693260791 c1.8671866199870002,1.9420532847819998 2.8658932616860002,5.096359872591 2.9856799253579998,9.466146430013001 c3.640626575651,-4.1373732298990005 7.28906648444,-7.235679819108 10.949226392936,-9.292319767692 c3.6497332420900017,-2.052733282015 7.315093150456001,-3.075519923112 10.981759725456,-3.075519923112 c4.85026654541,0 8.096359797590999,1.4433599639160004 9.74479975638,4.332679891683 c2.085933281185,3.8020932382810004 2.3268266084960003,8.709639782259 0.7239599819010001,14.708332965625 c0,0 -5.2187598695310005,19.462239513444 -5.2187598695310005,19.462239513444 c12.266933026660002,-6.839839829004 22.951826092871002,-14.494786304297001 31.656252541927003,-22.823559429411002 c0,0 0.940106643164,-3.496093245931 0.940106643164,-3.496093245931 c0.6979199825520008,-2.611986601367 0.5742133189780001,-4.464199888395 -0.3789066571940008,-5.544279861393001 z" stroke-width="0"/><path id="path28" style="fill:#254aa5;fill-opacity:1;fill-rule:nonzero;stroke:none" d="m346.17317924513236,131.27669195214844 c1.7408799564780022,0 3.4049465815430002,-0.617186651237 4.990879875228,-1.8717466198730008 c1.5859332936850001,-1.251306635384 2.608079934798,-2.729813265088 3.0598932568360007,-4.429039889274 c0.46874665494800005,-1.7382799565430018 0.22917332760400003,-3.259106585189 -0.7070266489910001,-4.552733219515001 c-0.9505199762370002,-1.281893301286 -2.27213327653,-1.932293285026 -3.971359900716,-1.932293285026 c-1.662759958431001,0 -3.3150932504560005,0.6503999837400006 -4.953119876172001,1.932293285026 c-1.6275999593100003,1.2936266343260001 -2.671879933203001,2.784506597054 -3.1263065885090002,4.4915332210450005 c-0.4609333218100003,1.7057332906900013 -0.22655999433600033,3.187506586979 0.701826649121,4.464199888395 c0.9296933100910006,1.2643199683920003 2.2604132768230003,1.897786619222 4.005213233203,1.897786619222 z" stroke-width="0"/><path id="path30" style="fill:#176fc1;fill-opacity:1;fill-rule:nonzero;stroke:none" d="m412.36979092355034,203.73111680745444 c0,0 0.7539066478190005,-2.8268265959959997 0.7539066478190005,-2.8268265959959997 c-2.5091199372720006,0.9700533090819993 -5.062506540104,1.9153732854490002 -7.645839808854,2.8268265959959997 c0,0 6.891933161035,0 6.891933161035,0 z" stroke-width="0"/><path id="path32" style="fill:#176fc1;fill-opacity:1;fill-rule:nonzero;stroke:none" d="m429.7968704878733,194.90950369466145 c-0.41406665631500034,1.5247332952150001 -1.1679733041340001,2.657546600228 -2.2812532763020004,3.419266581185 c-1.118479972038,0.7630266475910009 -2.8151065962890005,1.134119971647 -5.092439872689,1.134119971647 c0,0 -2.6731865998370004,0 -2.6731865998370004,0 c0,0 -1.1406266381510002,4.268226559961 -1.1406266381510002,4.268226559961 c0,0 26.930999326725004,0 26.930999326725004,0 c0,0 1.1315066383790002,-4.268226559961 1.1315066383790002,-4.268226559961 c0,0 -2.691399932715,0 -2.691399932715,0 c-2.1067732806640005,0 -3.579439910514,-0.4309866558920008 -4.425786556022,-1.3085999672850006 c-0.6471333171550007,-0.5651066525390008 -0.7539066478190005,-1.64973329209 -0.3307333250650003,-3.244786585547 c0,0 1.8932266193360001,-7.050786490397001 1.8932266193360001,-7.050786490397001 c-3.5221332452800005,1.9609466176430013 -7.178373153874,3.8502665704100005 -10.947906392969,5.669279858268001 c0,0 -0.3723999906900004,1.3815066321290006 -0.3723999906900004,1.3815066321290006 z" stroke-width="0"/><path id="path34" style="fill:#176fc1;fill-opacity:1;fill-rule:nonzero;stroke:none" d="m507.15884188715734,177.52147746269543 c-2.1210932803060003,7.903653135742 -5.100253205827,13.908852985612 -8.953119776172,18.011719549707 c-2.984373258724,3.115893255436 -6.473959838151001,4.669266549935 -10.470053071582,4.669266549935 c-4.264319893392001,0 -7.277346484733,-1.8216132877930002 -9.053386440332,-5.470039863249 c-1.7799466221680014,-3.643239908919 -1.6432266255860002,-9.285159767871 0.4075599898110004,-16.921879576953 c2.0247332827149997,-7.559893144336001 4.9947865417970005,-13.336586333252 8.907546443978001,-17.324212900228 c3.912759902181,-3.995453233447 7.932293135026001,-5.989586516927 12.045573032194,-5.989586516927 c3.8763065697590005,0 6.591146501888001,1.771479955713 8.132813130013,5.304039867399 c1.537759961556,3.5312399117190005 1.1979199700520002,9.436839764079 -1.0169333079100003,17.720692890316002 zm6.438813172363,-24.796866046745002 c-2.7187599320310003,-2.2506532770670002 -5.8815198529620005,-3.3691465824380002 -9.518239762044,-3.3691465824380002 c-3.419266581185,0 -6.7929598301760015,0.8723999781900009 -10.140613079818,2.6139332679850003 c-3.338546583203,1.7382799565430018 -6.880213161328001,4.692053216032 -10.604173068229,8.855466445280001 c0.6848933162110014,-2.9973999250650003 1.1015599724610001,-6.125653180192001 1.3802132988280003,-9.326826433496 c-3.4257865810220003,4.667319883317 -7.406253148177,9.195973103434001 -11.941413034798002,13.537119661572 c0,0 -14.080732981315,52.554025352816005 -14.080732981315,52.554025352816005 c-0.312493325521,1.1770933039060003 -1.024733307715,2.1223999469400003 -2.111973280534,2.8372399290690002 c-1.0976533058920002,0.7291733151040006 -2.5403599364910003,1.084639972884 -4.343746558073001,1.084639972884 c0,0 -3.873706569824,0 -3.873706569824,0 c0,0 -1.109373305599,4.113279897168001 -1.109373305599,4.113279897168001 c0,0 28.453132622005,0 28.453132622005,0 c0,0 1.1015599724610001,-4.113279897168001 1.1015599724610001,-4.113279897168001 c0,0 -3.87759990306,0 -3.87759990306,0 c-1.7994799550130005,0 -3.082039922949,-0.4531199886720003 -3.8554799036130003,-1.3632799659180006 c-0.6041599848960001,-0.6848933162110014 -0.6796799830080013,-1.8645866200520003 -0.23566666077500004,-3.524746578548 c0,0 5.7760398555990005,-21.552079461198 5.7760398555990005,-21.552079461198 c1.1614533042970003,3.4114665813800005 2.852866595345,5.972653184017 5.075519873112,7.696613140918 c2.2135332779950003,1.7200532903320003 4.988279875293,2.5807332688150004 8.315106458789,2.5807332688150004 c5.852853187012,0 11.485666379525,-2.282546609603 16.893226244336,-6.8385464957029996 c6.519533170345001,-5.476559863086001 10.953119726172002,-12.563799685905002 13.283853001237,-21.278639468034 c1.4648399633790001,-5.427079864323001 1.7356799566080023,-10.314453075472 0.8359333124350009,-14.64453296722 c-0.9062533106770003,-4.338546558203 -2.7187465986980017,-7.621093142806 -5.42186653112,-9.861973086784001 z" stroke-width="0"/><path id="path36" style="fill:#176fc1;fill-opacity:1;fill-rule:nonzero;stroke:none" d="m567.9335870344554,176.15299749690746 c-2.3906266069010003,8.894519777637 -5.481773196289,15.294266284310002 -9.286453101172,19.21093285306 c-3.8033865715820006,3.9101599022460003 -7.930999801725,5.868493186621 -12.365893024185999,5.868493186621 c-4.2942665593100005,0 -7.273439818164,-1.958333284375 -8.940106443164,-5.868493186621 c-1.6783866247069996,-3.9166665687499993 -1.3710932990559999,-10.105466414030001 0.8971333109050006,-18.580732868814998 c2.2356799441080004,-8.320306458659001 5.233079869173,-14.406892973161002 8.999999775000001,-18.257812876888 c3.7669332391600006,-3.8580665702150005 7.7812531388020005,-5.787106521989 12.041666365625,-5.787106521989 c4.515626553776,0 7.636719809082001,1.843093287256 9.365893099186,5.527346528483 c1.7278666234700002,3.680333241325 1.4895866294270004,9.649079758773 -0.7122399821940005,17.887372886149002 zm8.449213122103002,-19.735026173291 c-3.4856665795250006,-5.198573203369 -8.822906446094,-7.801439804964 -16.007812933138002,-7.801439804964 c-7.070306489909001,0 -13.722652990267001,2.634119934147 -19.951812834538,7.891933136035 c-6.240893177311,5.249346535433 -10.485679737858,12.083333031250001 -12.733079681673,20.503906154069 c-2.2539066103190004,8.382813123763 -1.6757732914390013,15.199212953353 1.722653290267,20.459626155176 c3.3984399150390003,5.243493202246 8.559906452669,7.876306469759 15.479172946354,7.876306469759 c4.671879883203,0 9.352866432845,-1.2044266365560001 14.042972982259,-3.5989599100260006 c4.695306549284,-2.4010399399740003 8.686186449512,-5.667973191634 11.975253033951999,-9.799479755013001 c3.2903599177409997,-4.132813230013 5.7278665234699995,-9.132813105013001 7.3059864840170015,-14.994786291797002 c2.26693327666,-8.492186454362 1.6575599585610008,-15.333986283317 -1.8333332875000001,-20.537106153239 z" stroke-width="0"/><path id="path38" style="fill:#e1850f;fill-opacity:1;fill-rule:nonzero;stroke:none" d="m244.42447512218337,115.8229190051594 c6.121746513623,-11.56119971097 13.971359650716,-20.57226615236 23.558599411035,-27.023439324414 c9.587893093636001,-6.455079838623 19.148439521289003,-9.689453091097 28.679679283008,-9.689453091097 c6.880213161328001,0 12.671879683203,2.1132799471680004 17.363279565918003,6.346999841325 c4.695319882617,4.224613227718001 7.048186490462,10.945973059683999 7.048186490462,20.148439496289 c0,2.4570266052410004 -0.2096399947590002,5.2929732010090005 -0.6145866513020001,8.494146454313 c0,0 5.481773196289,0 5.481773196289,0 c0,-10.606773068164 1.822919954427,-22.373706107324004 5.475253196452,-35.294279117643 c-4.274733226465,-0.06573333169000002 -10.496093070931,-1.031239974219 -18.678386199707,-2.8938799276530007 c-8.122386463607,-1.9225199519370002 -15.200519619987,-2.88866659445 -21.214839469629002,-2.88866659445 c-11.104159722396,0 -22.831372762548998,3.8867199028320005 -35.181639120459,11.665359708366001 c-12.346999691325,7.77799980555 -21.998039450049,17.686852891162 -28.930985943392,29.716145923762998 c-5.643879858903,9.797533088395001 -8.94986644292,20.132159496696 -9.99999975,31.001959224951 c0,0 18.171879545703,0 18.171879545703,0 c0.8932266443360006,-10.203133078255 3.8163999045900003,-20.058599498535003 8.841786445622,-29.58333259375 z" stroke-width="0"/><path id="path40" style="fill:#e1850f;fill-opacity:1;fill-rule:nonzero;stroke:none" d="m267.18034121995333,235.70246267483753 c-3.24999991875,3.3177199170570004 -7.001306491634001,4.981773208789001 -11.260426385156002,4.981773208789001 c-2.0917866143720003,0 -4.0709598982260005,-0.546866652995 -5.923826518571,-1.6419199589520002 c-1.8600266201660003,-1.0898533060870002 -4.443359888916,-3.473959913151 -7.749346472933,-7.149746487923 c-2.9049465940430004,-3.2669199183270003 -5.5078131956380005,-4.899733210840001 -7.8072931381510005,-4.899733210840001 c-1.6861999578450013,0 -3.1913999202150003,0.6354133174480007 -4.5104132205730005,1.9361999515950008 c-1.313799967155,1.2916666343750003 -1.9661466175130016,2.8450532622069997 -1.9661466175130016,4.683586549577 c0,3.397133248405 2.0755199481120004,6.641933167285 6.231119844222001,9.736986423242 c4.166013229183,3.0885332561200003 9.624346426058,4.634106550814 16.388026256966,4.634106550814 c7.979159800521001,0 15.423826281071,-2.2525999436850004 22.320306108659,-6.764319830892001 c6.173173179004,-4.055986565267 11.753253039502,-10.449213072103 16.738279581543,-19.173172854004 c-4.596346551758,-0.015599999610000023 -9.15559977111,-0.11199999720000003 -13.677079658073,-0.28125332630200006 c-2.906906593994,6.355466507780001 -5.841799853955001,11.009119724772 -8.78319978042,13.937492984896 z" stroke-width="0"/><path id="path42" style="fill:#254aa5;fill-opacity:1;fill-rule:nonzero;stroke:none" d="m33.966800383625326,55.517573846126425 c0,0 -21.817706121224,62.41666510625 -21.817706121224,62.41666510625 c-3.240879918978,0.9134133104980002 -6.516279837093,2.003253283252 -9.828119754297,3.2552132519530006 c0,0 11.986319700342,-36.630865750895005 11.986319700342,-36.630865750895005 c2.210946611393,-6.8046798298830025 3.3248665835450004,-12.340493024820999 3.3248665835450004,-16.602852918262002 c0,-2.774746597298 -0.745439981364,-4.922533210270001 -2.234373277474,-6.447919838802 c-1.490879962728,-1.5214799619630002 -4.291666559375,-3.0214799244629997 -8.412759789681001,-4.50586655402 c0,0 -2.4635332717450003,-0.856759978581001 -2.4635332717450003,-0.856759978581001 c-3.0169332579100003,-1.0657599733560001 -4.521493220296,-2.191413278548 -4.521493220296,-3.3665465825030005 c0,-0.6425733172690007 0.7610666476400006,-1.404946631543 2.281906609619,-2.281893276286 c1.743493289746,-1.0253866410320003 3.623693242741001,-2.398439940039 5.634759859131,-4.108079897298 c12.568359685791002,-1.6881466244630012 26.257159343571,-2.534506603304 41.070972306559,-2.534506603304 c10.964839725879001,0 18.656892866911,0.6074266514810006 23.075519423112002,1.826173287679 c4.4173198895670005,1.218106636214 6.626946500993,3.352213249528 6.626946500993,6.3977865067219994 c0,3.273439918164 -3.330079916748,6.899093160856 -9.995439750114,10.856773061914001 c0,0 -5.486973196159001,3.2552132519530006 -5.486973196159001,3.2552132519530006 c-2.734386598307,1.6048132932130001 -4.434906555794,2.6595066001789998 -5.0872398728190005,3.1731732540040003 c-0.6549599836260008,0.5156266537760001 -0.9817733087889995,1.080079972998 -0.9817733087889995,1.686853291162 c0,1.067706639974 0.9589866426920006,2.188146611963 2.8847599278810003,3.368479915788 c0,0 2.93879992653,1.8300799542480006 2.93879992653,1.8300799542480006 c5.109373205599001,3.086586589502 8.658213116878,5.882813186263 10.635426400781,8.397133123405 c1.9798132838380003,2.514973270459 2.971346592383,5.463546530078001 2.971346592383,8.855479778613 c0,5.753253189502 -2.748039931299001,11.444653047216999 -8.226559794336001,17.082026239616 c-3.311853250537,3.430333247575 -7.268879818278001,6.244786510547001 -11.874346369808002,8.455079788623001 c-4.037106565739,1.901039952474 -9.347653099642,2.8554665952800002 -15.932292935026002,2.8554665952800002 c-5.214199869645,0 -9.690106424414001,-0.44466665555000046 -13.417972997884,-1.3203066336590008 c-1.7571599560710007,-0.3821733237790005 -2.630199934245,-0.9817733087889995 -2.630199934245,-1.7845066220540002 c0,-0.3431066580890005 0.6894533160970007,-1.085946639518 2.0729066148440003,-2.2441466105630004 c2.296226609261,-1.8743466198079999 4.268879893278,-3.6360665757650006 5.921879851953,-5.284506534554 c3.6940132409829998,0.3443999913900009 6.321613175293,0.5123733205240001 7.8828131362630005,0.5123733205240001 c2.016279949593,0 4.739586548177,-0.135413329948 8.167319795817,-0.39909332335600045 c-0.07946666468000012,0.16406666256500027 -0.19791999505200047,0.4401066556640006 -0.3548266577960005,0.8372399790690006 c-0.12239999694000003,0.2050799948730002 -0.17967999550800004,0.4837333212400001 -0.17967999550800004,0.8437599789060006 c0,0.9928266418459997 1.5351599616209999,1.4928266293460006 4.60546655153,1.4928266293460006 c4.930333210075,0 8.658199783545001,-0.8769466447430008 11.199866386670001,-2.636719934082 c2.957039926074,-1.9869732836590002 4.439453222347001,-4.6803332163250015 4.439453222347001,-8.080066464665 c0,-3.2871199178220003 -1.043613307243,-6.518239837044 -3.123039921924,-9.688813091113001 c-2.307293275651,-3.4798132463380007 -5.3697998657550015,-6.361973174284 -9.190759770231,-8.66079978348 c0,0 -3.9661465675130003,-2.404293273226 -3.9661465675130003,-2.404293273226 c-3.6940132409829998,-2.3528666078450002 -5.8717465198730014,-3.8385465707030004 -6.546226503011001,-4.464199888395 c-0.6731733165040013,-0.6282533176270005 -1.0117199747070003,-1.5117199622070001 -1.0117199747070003,-2.647786600472 c0,-1.214839969629 0.48177332128900047,-2.2395866106770006 1.440759963981,-3.0716132565430003 c0.7226533152670006,-0.6093733180990005 2.891279927718,-1.843093287256 6.498693170866,-3.700519907487 c0,0 4.657559883561,-2.4498666054200005 4.657559883561,-2.4498666054200005 c3.873693236491002,-2.0097732830890003 6.608066501465001,-3.6529999086750022 8.199213128353,-4.923826543571001 c1.5911466268880003,-1.2708399682290001 2.386719940332,-2.4550799386230002 2.386719940332,-3.5553465777830002 c0,-3.9459599013510003 -8.262373126774001,-5.919266518685 -24.787759380306003,-5.919266518685 c-2.40559993986,0 -6.899093160856,0.10293333076000002 -13.479159663021,0.31185332553700035 c-6.5878931686360005,0.20637332817400006 -10.888679727783002,0.3860666570150005 -12.911466343879999,0.5384133198729993 c-1.1432266380860001,0.07746666473000012 -1.7141866238119996,0.3203066586590006 -1.7141866238119996,0.7408799814780008 c0,0.26366666007500034 0.3958266567710006,0.6432266505860009 1.1959599701010002,1.1367199715820002 c1.408853298112,0.8346399791340008 2.323573275244,1.7070266239910001 2.73893326486,2.6139332679850003 c0.4205733228190004,0.9140533104820002 0.6347599841310007,2.448559938786 0.6347599841310007,4.60546655153 c0,3.3736932489909996 -0.39387999015300074,7.141919821452 -1.1783866372070002,11.315759717106 c0,0 4.7376398815590015,-14.555346302783 4.7376398815590015,-14.555346302783 c3.8072932381510003,-0.9837199754070003 7.521479811963001,-2.163413279248 11.142573054769,-3.5345065783039997 z" stroke-width="0"/></g></g></g></svg>